<!-- Generator: Adobe Illustrator 24.0.0, SVG Export Plug-In  -->
<svg version="1.1" xmlns="http://www.w3.org/2000/svg" xmlns:xlink="http://www.w3.org/1999/xlink" x="0px" y="0px" width="93.8px"
	 height="185.67px" viewBox="0 0 93.8 185.67" style="enable-background:new 0 0 93.8 185.67;" xml:space="preserve">
<style type="text/css">
	.st0{fill:#EE4036;}
	.st1{fill:#F6921E;}
	.st2{fill:#FFDD15;}
	.st3{fill:#917C57;}
	.st4{fill:#725D3D;}
	.st5{fill:#AD9977;}
	.st6{fill:#C1B49A;}
	.st7{fill:#931212;}
	.st8{fill:#700B0B;}
	.st9{fill:#BA2222;}
	.st10{fill:#E03636;}
</style>
<defs>
</defs>
<g>
	<g>
		<path class="st0" d="M33.28,46.97c0,0-0.58-5.08,2.48-6.38c3.06-1.3,10.35,0.04,10.35,0.04s-5.53-4.46-4.86-7.47
			c0.67-3,14.85-12.69,14.85-12.69s-15.49,6.42-16.8,2.34C37.99,18.73,44.69,0,44.69,0S33.54,16.2,28.9,16.24
			C24.25,16.27,15.2,3.27,15.2,3.27s6.82,15.95,4.65,19.5C17.67,26.31,0,24.36,0,24.36s15.81,5.14,17.73,9.53
			c1.93,4.39-9.35,12.85-9.35,12.85s12.04-8.22,14.75-7.29c2.71,0.92,1.12,10.14,1.12,10.14s3.25-6.34,5.03-7.22
			C31.06,41.49,33.28,46.97,33.28,46.97z"/>
		<path class="st1" d="M20.41,38.24c0,0,3.99-2.33,2.99-5.28c-1-2.95-8.85-6.57-8.85-6.57s8.81,0.99,10.63-0.14
			c1.82-1.14-2.29-10.4-2.29-10.4s4.79,5.6,6.98,5.7c2.19,0.11,9.1-10.45,9.1-10.45s-4.34,10.94-2.68,13.33
			c1.66,2.39,9.05,1.47,9.05,1.47s-6.4,3.88-6.27,7.03c0.13,3.15,3.07,5.5,3.07,5.5s-3.37-2.97-7.19-2.03s-3.41,5.13-3.41,5.13
			s-0.03-3.67-2.46-3.78c-2.43-0.11-3.48,3.15-3.48,3.15S26.96,35.37,20.41,38.24z"/>
		<path class="st2" d="M22.75,28.77c0,0,3.26,0.77,4.97-0.08c1.71-0.85,0.28-5.43,0.28-5.43s1.29,3.34,2.58,3.18
			c1.29-0.16,3.91-3.75,3.91-3.75s-1.28,4.34-0.67,5.35c0.6,1.01,4.85,0.22,4.85,0.22s-2.99,2.55-3.15,3.22
			c-0.16,0.67,2.67,3.67,2.67,3.67s-3.76-2.83-5.26-2.15c-1.5,0.68-1.48,3.23-1.48,3.23s-1.24-2.48-2.29-2.44
			c-1.05,0.04-2.82,2.23-2.82,2.23s1.18-2.66,0.82-3.88C26.79,30.93,22.75,28.77,22.75,28.77z"/>
	</g>
	<g>
		<g>
			<path class="st3" d="M45.3,68.67c-2.2,6.7,0.07,10.39,0.09,10.44c0.38,0.6,0.2,1.39-0.38,1.76c-0.21,0.14-0.45,0.2-0.69,0.2
				c-0.43,0-0.84-0.2-1.08-0.59c-0.14-0.21-2.5-4.04-0.9-10.74c0.52-2.21,1.48-4.73,3.1-7.55c3.13-5.46,4.05-12.19,2.49-17.64
				c-0.14-0.53-0.32-1.04-0.52-1.54c-0.8-2.01-2.29-4.53-4.94-5.88c-0.03-0.02-0.06-0.03-0.09-0.04c-0.04-0.02-0.08-0.03-0.11-0.06
				c-0.38-0.18-0.78-0.34-1.21-0.47c-0.67-0.21-1.06-0.92-0.85-1.6c0.2-0.67,0.92-1.06,1.59-0.84c0.54,0.16,1.06,0.37,1.56,0.61
				c2.81,1.35,5.06,3.9,6.42,7.34c0.08,0.19,0.14,0.38,0.21,0.58c0.38,1.04,0.67,2.14,0.86,3.27v0.01
				c1.01,5.66-0.13,12.18-3.21,17.55C46.56,65.37,45.81,67.1,45.3,68.67z"/>
		</g>
		<g>
			<path class="st3" d="M65.15,81.78c0.02,0.71-0.55,1.29-1.25,1.3h-0.03c-0.69,0-1.26-0.56-1.28-1.26c0-0.19-0.2-9.9-3.12-20.4
				c-1.32-4.78-3.21-9.73-5.89-14.02c-1.07-1.71-2.25-3.3-3.59-4.74c-2.12-2.31-4.61-4.22-7.53-5.52c-0.03-0.02-0.06-0.03-0.09-0.04
				c-0.04-0.02-0.08-0.03-0.11-0.06c-0.57-0.32-0.81-1.02-0.55-1.63c0.27-0.63,1-0.92,1.64-0.67c0.02,0,0.03,0.01,0.05,0.02
				c7,3.08,11.74,9.17,14.96,15.99c1.3,2.75,2.35,5.63,3.21,8.47C64.92,70.36,65.14,80.96,65.15,81.78z"/>
		</g>
		<path class="st4" d="M45.4,79.1c0.38,0.6,0.2,1.39-0.38,1.76c-0.21,0.14-0.45,0.2-0.69,0.2c-0.43,0-0.84-0.2-1.08-0.59
			c-0.14-0.21-2.5-4.04-0.9-10.74c1-0.35,2-0.72,2.97-1.08C43.1,75.37,45.37,79.06,45.4,79.1z"/>
		<path class="st4" d="M58.37,50.74c-1.42-1.22-3.05-2.33-4.79-3.34c-0.89-0.52-1.8-1.01-2.73-1.47v-0.01
			c-0.96-0.48-1.94-0.93-2.93-1.36c-0.14-0.53-0.32-1.04-0.52-1.54c-0.8-2.01-2.29-4.53-4.94-5.88c-0.03-0.02-0.06-0.03-0.09-0.04
			c-0.04-0.02-0.08-0.03-0.11-0.06c-0.38-0.18-0.78-0.34-1.21-0.47c-0.67-0.21-1.06-0.92-0.85-1.6c0.2-0.67,0.92-1.06,1.59-0.84
			c0.54,0.16,1.06,0.37,1.56,0.61c0.02,0,0.03,0.01,0.05,0.02C50.41,37.83,55.15,43.93,58.37,50.74z"/>
		<path class="st4" d="M65.15,81.78c0.02,0.71-0.55,1.29-1.25,1.3h-0.03c-0.69,0-1.26-0.56-1.28-1.26c0-0.19-0.2-9.9-3.12-20.4
			c0.89-0.72,1.6-1.47,2.11-2.21C64.92,70.36,65.14,80.96,65.15,81.78z"/>
		<g>
			<path class="st3" d="M71.57,76.53c-0.02,0-0.03,0-0.05,0c-0.71-0.03-1.26-0.62-1.23-1.33c1.19-29.69-35.06-42.71-35.43-42.83
				c-0.67-0.23-1.02-0.96-0.79-1.63c0.23-0.67,0.96-1.02,1.63-0.79c0.38,0.13,38.41,13.79,37.14,45.35
				C72.82,75.99,72.25,76.53,71.57,76.53z"/>
		</g>
		<g>
			<path class="st5" d="M28.4,85.65c-0.55,0-1.05-0.35-1.22-0.9c-3.63-11.63,5.29-19.1,12.47-25.09c2.97-2.48,5.78-4.83,7.51-7.21
				c5.48-7.53-3.61-16.08-3.7-16.16c-0.52-0.48-0.55-1.29-0.07-1.81c0.48-0.52,1.29-0.55,1.81-0.07c3.78,3.49,9.48,12.07,4.04,19.55
				c-1.92,2.63-4.84,5.08-7.94,7.67C34.02,67.7,26.5,73.99,29.62,83.99c0.21,0.67-0.17,1.39-0.84,1.6
				C28.65,85.63,28.53,85.65,28.4,85.65z"/>
		</g>
		<g>
			<path class="st6" d="M44.19,72.33c-0.43,0-0.85-0.22-1.09-0.62c-0.19-0.31-4.63-7.81-0.98-18.49c2.03-5.96,0.62-13.76-3.29-18.15
				c-1.61-1.81-4.35-3.78-8.27-2.93c-0.69,0.15-1.37-0.29-1.52-0.98c-0.15-0.69,0.29-1.37,0.98-1.52c4-0.87,7.81,0.45,10.72,3.73
				c4.48,5.03,6.11,13.91,3.8,20.68c-3.26,9.56,0.71,16.27,0.75,16.33c0.37,0.6,0.17,1.39-0.43,1.76
				C44.65,72.27,44.42,72.33,44.19,72.33z"/>
		</g>
	</g>
	<g>
		<g>
			<path class="st7" d="M65.3,179.84c-2.88,2.16-9.64,6.26-18.75,5.79c-1.48-0.07-2.69-1.2-2.91-2.64
				c-0.03-0.13-0.03-0.25-0.04-0.38c-0.02-0.34-0.03-0.72-0.05-1.11c0,0,0,0,0-0.01c-0.26-6.3-0.95-19.51-2.34-33.64
				c-1.37-13.86-3.44-28.61-6.5-38.58c-0.25-0.78-0.03-1.62,0.56-2.18c2.9-2.81,12.08-10.19,22.03-2.19
				c0.48,0.38,0.78,0.94,0.83,1.55c0.31,3.73,1.53,18.5,3.47,35.4c1.27,11.11,2.86,23.16,4.67,33.58c0.08,0.44,0.15,0.88,0.23,1.31
				C66.71,177.93,66.25,179.13,65.3,179.84z"/>
			<path class="st8" d="M44.76,183.56c0,0,1.25-4.45,11.75-6.94c10.5-2.49,13.46,2.64,1.07,6.59
				C46.78,186.65,43.7,185.23,44.76,183.56z"/>
			<path class="st8" d="M66.27,175.44c-1.48-1.07-2.95-1.25-6.74-0.75c-6.45,0.85-13.5,4.14-15.98,6.81
				c-0.26-6.3-0.95-19.51-2.34-33.64c2.12-3.02,4.34-5.99,4.34-5.99H61.6C62.87,152.98,64.45,165.02,66.27,175.44z"/>
		</g>
		<g>
			<path class="st7" d="M88.41,175.24c-3.15,2.34-10.51,6.83-20.46,6.32c-1.21-0.06-2.24-0.76-2.8-1.77
				c-0.19-0.35-0.32-0.72-0.38-1.13c-0.03-0.13-0.04-0.26-0.05-0.4c-0.24-5.9-0.9-19.82-2.34-35.14
				c-1.49-15.89-3.81-33.31-7.35-44.84c-0.26-0.85-0.03-1.77,0.61-2.39c3.15-3.07,13.17-11.11,24.03-2.39
				c0.52,0.42,0.85,1.02,0.9,1.69c0.39,4.87,2.24,26.94,5.12,49.63c0.03,0.21,0.06,0.43,0.09,0.65c0.83,6.53,1.75,13.11,2.75,19.32
				c0.25,1.55,0.49,3.08,0.76,4.58c0.15,0.84,0.29,1.68,0.43,2.5C89.95,173.15,89.45,174.46,88.41,175.24z"/>
			<path class="st8" d="M66,179.3c0,0,1.36-4.85,12.82-7.57c11.46-2.72,14.68,2.88,1.17,7.18C68.2,182.67,64.84,181.12,66,179.3z"/>
			<path class="st8" d="M89.28,169.38c-5.66-2.62-18.66,2.25-22.28-0.51c0,0-0.78,0.93-0.95,2.15c-0.16,1.21,0.49,4.6,0.49,4.6
				s-1.03,2.03-1.4,4.18c-0.19-0.35-0.32-0.72-0.38-1.13c-0.03-0.13-0.04-0.26-0.05-0.4c-0.24-5.9-0.9-19.82-2.34-35.14l23.31,1.7
				c0.03,0.21,0.06,0.43,0.09,0.65c0.83,6.53,1.75,13.11,2.75,19.32C88.77,166.35,89.02,167.88,89.28,169.38z"/>
		</g>
		<g>
			<path class="st7" d="M92.3,161.89c-3.45,2.58-11.54,7.5-22.45,6.93c-1.78-0.09-3.22-1.44-3.49-3.17
				c-0.03-0.15-0.04-0.29-0.05-0.44c-0.54-13.19-3.02-62.94-10.65-87.81c-0.29-0.93-0.03-1.94,0.67-2.62
				c3.47-3.37,14.47-12.2,26.38-2.63c0.57,0.46,0.94,1.13,1,1.86c0.61,7.54,4.39,52.62,10.03,84.18
				C94,159.6,93.44,161.03,92.3,161.89z"/>
			<path class="st9" d="M89.88,154.62c0,0-20.53,1.22-23.52,11.03c-0.03-0.15-0.04-0.29-0.05-0.44c-0.03-0.84-0.08-1.82-0.12-2.92
				c0.7-1.69,1.66-3.09,2.53-4.14c-0.24,0.2-0.38,0.31-0.38,0.31c0.24-5.44,0.13-11.25-0.23-17.15c-0.89-6.95-1.79-15.6-2.63-24.51
				c-1.61-17.06-3.01-35.03-3.66-43.68c-0.03-0.34-0.05-0.67-0.08-0.98c4.84-3.05,12.04-5.24,19.6,0.79
				C81.35,72.92,87.11,136.71,89.88,154.62z"/>
			<path class="st8" d="M67.71,166.34c0,0,1.49-5.33,14.07-8.31c12.58-2.98,16.12,3.16,1.28,7.89
				C70.12,170.04,66.43,168.34,67.71,166.34z"/>
			<path class="st9" d="M70.84,156.02c0,0-0.97,0.76-2.11,2.12c-0.24,0.2-0.38,0.31-0.38,0.31c0.24-5.44,0.13-11.25-0.23-17.15
				C69.08,148.79,70.01,154.31,70.84,156.02z"/>
			<path class="st10" d="M77.95,72.26c0,0-4.97-4.69-14.07,0c0,0,4.97,65.23,6.96,76.74c0,0-1.56-62.28,0.71-67.95l2.27-1.97
				c0,0,0.29,11.37,1.99,18.19C75.82,97.27,75.1,77.8,77.95,72.26z"/>
		</g>
		<g>
			<path class="st7" d="M59.05,171.16c-3.45,2.58-11.54,7.5-22.45,6.93c-1.78-0.09-3.22-1.44-3.49-3.17
				c-0.03-0.14-0.04-0.29-0.05-0.44c-0.54-13.19-3.02-62.94-10.65-87.81c-0.29-0.93-0.03-1.94,0.67-2.62
				c3.47-3.37,14.47-12.2,26.38-2.63c0.57,0.46,0.94,1.13,1,1.86c0.61,7.54,4.39,52.62,10.03,84.18
				C60.75,168.86,60.2,170.3,59.05,171.16z"/>
			<path class="st9" d="M56.63,163.88c0,0-20.53,1.22-23.52,11.03c-0.03-0.14-0.04-0.29-0.05-0.44
				c-0.54-13.19-3.02-62.94-10.65-87.81c0,0,0.67-2.62,5.48-4.87c3.35,16.68,12.3,72.88,11.05,83.01c0,0,11.62-3.24,17.55-1.77
				C56.55,163.33,56.59,163.61,56.63,163.88z"/>
			<path class="st8" d="M34.46,175.61c0,0,1.49-5.33,14.07-8.31c12.58-2.98,16.12,3.16,1.28,7.89
				C36.88,179.3,33.19,177.61,34.46,175.61z"/>
			<path class="st10" d="M25.88,84.37c0,0,10.66,51.73,10.8,80.01c0,0-6.11-57.84-12.79-77.74C23.89,86.65,24.46,85.08,25.88,84.37z
				"/>
		</g>
		<g>
			<path class="st7" d="M67.72,155.07c-3.45,2.58-11.54,7.5-22.45,6.93c-1.78-0.09-3.22-1.44-3.49-3.17
				c-0.03-0.14-0.04-0.29-0.05-0.44c-0.54-13.19-3.02-62.94-10.65-87.81c-0.29-0.93-0.03-1.94,0.67-2.62
				c3.47-3.37,14.47-12.2,26.38-2.63c0.57,0.46,0.94,1.13,1,1.86c0.61,7.54,4.39,52.62,10.03,84.18
				C69.42,152.77,68.86,154.21,67.72,155.07z"/>
			<path class="st9" d="M65.3,147.8c0,0-20.53,1.22-23.52,11.03c-0.03-0.14-0.04-0.29-0.05-0.44c-0.54-13.19-3.02-62.94-10.65-87.81
				c0,0,12.26-15.18,25.69-4.48C56.77,66.1,62.53,129.89,65.3,147.8z"/>
			<path class="st8" d="M43.13,159.52c0,0,1.49-5.33,14.07-8.31c12.58-2.98,16.12,3.16,1.28,7.89
				C45.54,163.21,41.85,161.52,43.13,159.52z"/>
			<path class="st10" d="M33.32,71.05c0,0,11.94,47.11,10.45,80.58c0,0,4.26-3.62,7.89-4.26c0,0-2.34-61.82-7.46-76.32
				c0,0,5.76,4.9,8.95,41.36c0,0,0.85-40.29-1.07-48.18C52.08,64.23,41.21,58.26,33.32,71.05z"/>
		</g>
	</g>
</g>
</svg>
