<!-- Generator: Adobe Illustrator 24.0.0, SVG Export Plug-In  -->
<svg version="1.1" xmlns="http://www.w3.org/2000/svg" xmlns:xlink="http://www.w3.org/1999/xlink" x="0px" y="0px" width="78.42px"
	 height="19.7px" viewBox="0 0 78.42 19.7" style="enable-background:new 0 0 78.42 19.7;" xml:space="preserve">
<style type="text/css">
	.st0{fill:url(#SVGID_1_);}
	.st1{fill:#FFFFFF;}
	.st2{fill:url(#SVGID_2_);}
</style>
<defs>
</defs>
<linearGradient id="SVGID_1_" gradientUnits="userSpaceOnUse" x1="77.9152" y1="9.8483" x2="-0.5" y2="9.8483">
	<stop  offset="0.0354" style="stop-color:#FFA98C"/>
	<stop  offset="0.1632" style="stop-color:#F89A90"/>
	<stop  offset="0.4111" style="stop-color:#E4719C"/>
	<stop  offset="0.751" style="stop-color:#C430AF"/>
	<stop  offset="0.9848" style="stop-color:#AD00BD"/>
</linearGradient>
<path class="st0" d="M9.85,0C4.42,0,0,4.42,0,9.85c0,5.43,4.42,9.85,9.85,9.85h58.72c5.43,0,9.85-4.42,9.85-9.85
	C78.42,4.42,74,0,68.57,0H9.85z"/>
<path class="st1" d="M15.79,12.41c-0.41-0.38-0.63-0.91-0.65-1.58c-0.01-0.15-0.01-0.4-0.01-0.74c0-0.34,0-0.59,0.01-0.74
	c0.02-0.66,0.24-1.18,0.66-1.56c0.42-0.38,0.99-0.56,1.71-0.56c0.49,0,0.91,0.08,1.27,0.25c0.35,0.17,0.62,0.38,0.8,0.62
	c0.18,0.25,0.28,0.49,0.29,0.73c0,0.05-0.02,0.09-0.05,0.12C19.79,8.98,19.75,9,19.69,9h-0.84c-0.05,0-0.09-0.01-0.12-0.03
	c-0.03-0.02-0.05-0.06-0.07-0.1c-0.08-0.2-0.21-0.37-0.39-0.5c-0.19-0.14-0.44-0.21-0.76-0.21c-0.37,0-0.66,0.1-0.88,0.3
	c-0.21,0.2-0.32,0.51-0.33,0.93c0,0.15-0.01,0.39-0.01,0.7c0,0.31,0,0.54,0.01,0.7c0.01,0.43,0.12,0.75,0.34,0.96
	c0.21,0.21,0.51,0.31,0.88,0.31c0.38,0,0.68-0.1,0.91-0.3c0.23-0.2,0.34-0.51,0.34-0.91v-0.25H17.8c-0.05,0-0.1-0.02-0.14-0.06
	s-0.06-0.08-0.06-0.14V9.96c0-0.05,0.02-0.1,0.06-0.14c0.04-0.04,0.08-0.06,0.14-0.06h1.92c0.06,0,0.11,0.02,0.14,0.06
	c0.04,0.04,0.06,0.08,0.06,0.14v0.85c0,0.44-0.1,0.83-0.3,1.16c-0.2,0.33-0.48,0.58-0.84,0.76c-0.36,0.18-0.79,0.26-1.27,0.26
	C16.77,12.98,16.2,12.79,15.79,12.41z"/>
<path class="st1" d="M21.42,12.47c-0.35-0.34-0.54-0.83-0.56-1.46l-0.01-0.2c0-0.67,0.17-1.19,0.52-1.58
	c0.35-0.38,0.83-0.58,1.45-0.58c0.63,0,1.12,0.19,1.47,0.58c0.34,0.38,0.52,0.9,0.52,1.54v0.17c0,0.05-0.02,0.1-0.06,0.14
	c-0.04,0.04-0.09,0.06-0.14,0.06h-2.66v0.06c0.01,0.3,0.09,0.55,0.24,0.74c0.15,0.19,0.36,0.29,0.63,0.29c0.3,0,0.55-0.12,0.74-0.37
	c0.05-0.06,0.08-0.09,0.11-0.11c0.03-0.01,0.07-0.02,0.14-0.02h0.7c0.05,0,0.09,0.01,0.12,0.04c0.04,0.03,0.05,0.06,0.05,0.11
	c0,0.13-0.08,0.28-0.23,0.45c-0.15,0.17-0.37,0.32-0.65,0.45c-0.28,0.13-0.61,0.19-0.98,0.19C22.24,12.98,21.77,12.81,21.42,12.47z
	 M23.71,10.45v-0.02c0-0.31-0.08-0.57-0.24-0.76C23.32,9.49,23.1,9.4,22.83,9.4c-0.27,0-0.49,0.09-0.64,0.28
	c-0.15,0.19-0.23,0.44-0.23,0.76v0.02H23.71z"/>
<path class="st1" d="M26.64,12.52c-0.25-0.25-0.37-0.63-0.37-1.12V9.6h-0.63c-0.05,0-0.1-0.02-0.14-0.06
	c-0.04-0.04-0.06-0.08-0.06-0.14V8.93c0-0.05,0.02-0.1,0.06-0.14c0.04-0.04,0.08-0.06,0.14-0.06h0.63V7.41
	c0-0.06,0.02-0.1,0.06-0.14c0.04-0.04,0.08-0.05,0.14-0.05h0.66c0.06,0,0.11,0.02,0.14,0.05c0.03,0.04,0.05,0.08,0.05,0.14v1.33h1
	c0.05,0,0.1,0.02,0.14,0.06c0.04,0.04,0.06,0.08,0.06,0.14v0.47c0,0.05-0.02,0.1-0.06,0.14c-0.04,0.04-0.08,0.06-0.14,0.06h-1v1.72
	c0,0.23,0.04,0.4,0.12,0.52c0.08,0.12,0.21,0.18,0.39,0.18h0.56c0.06,0,0.11,0.02,0.14,0.05c0.04,0.04,0.05,0.08,0.05,0.14v0.5
	c0,0.05-0.02,0.1-0.05,0.14c-0.03,0.04-0.08,0.06-0.14,0.06h-0.66C27.25,12.9,26.88,12.78,26.64,12.52z"/>
<path class="st1" d="M32.34,12.77c-0.34-0.14-0.6-0.33-0.78-0.57c-0.18-0.23-0.27-0.49-0.28-0.77c0-0.04,0.02-0.08,0.05-0.12
	c0.03-0.04,0.07-0.05,0.12-0.05h0.73c0.06,0,0.11,0.01,0.14,0.04c0.04,0.03,0.07,0.06,0.1,0.11c0.05,0.18,0.17,0.33,0.36,0.46
	c0.19,0.12,0.45,0.18,0.78,0.18c0.37,0,0.65-0.06,0.84-0.19c0.19-0.13,0.28-0.3,0.28-0.52c0-0.14-0.05-0.26-0.14-0.36
	c-0.1-0.1-0.24-0.18-0.44-0.25c-0.19-0.07-0.48-0.16-0.87-0.26c-0.63-0.15-1.09-0.35-1.38-0.59c-0.29-0.25-0.44-0.6-0.44-1.06
	c0-0.31,0.09-0.59,0.26-0.83c0.17-0.24,0.41-0.43,0.73-0.57c0.32-0.14,0.69-0.21,1.11-0.21c0.44,0,0.83,0.08,1.15,0.23
	c0.32,0.16,0.57,0.35,0.74,0.58c0.17,0.23,0.26,0.46,0.27,0.69c0,0.04-0.02,0.08-0.05,0.12c-0.03,0.03-0.07,0.05-0.12,0.05h-0.76
	c-0.12,0-0.2-0.05-0.24-0.14c-0.03-0.17-0.13-0.31-0.31-0.43c-0.18-0.11-0.41-0.17-0.67-0.17c-0.29,0-0.52,0.06-0.69,0.17
	s-0.25,0.27-0.25,0.49c0,0.14,0.04,0.26,0.13,0.36c0.08,0.1,0.22,0.18,0.4,0.25c0.18,0.07,0.45,0.15,0.79,0.24
	c0.47,0.11,0.85,0.23,1.13,0.36c0.28,0.13,0.49,0.3,0.62,0.5c0.13,0.2,0.2,0.46,0.2,0.78c0,0.35-0.09,0.65-0.28,0.9
	c-0.19,0.25-0.46,0.45-0.8,0.58c-0.34,0.13-0.74,0.2-1.2,0.2C33.09,12.98,32.68,12.91,32.34,12.77z"/>
<path class="st1" d="M37.66,12.52c-0.25-0.25-0.37-0.63-0.37-1.12V9.6h-0.63c-0.05,0-0.1-0.02-0.14-0.06
	c-0.04-0.04-0.06-0.08-0.06-0.14V8.93c0-0.05,0.02-0.1,0.06-0.14c0.04-0.04,0.08-0.06,0.14-0.06h0.63V7.41
	c0-0.06,0.02-0.1,0.06-0.14c0.04-0.04,0.08-0.05,0.14-0.05h0.66c0.06,0,0.11,0.02,0.14,0.05c0.03,0.04,0.05,0.08,0.05,0.14v1.33h1
	c0.05,0,0.1,0.02,0.14,0.06c0.04,0.04,0.06,0.08,0.06,0.14v0.47c0,0.05-0.02,0.1-0.06,0.14c-0.04,0.04-0.08,0.06-0.14,0.06h-1v1.72
	c0,0.23,0.04,0.4,0.12,0.52c0.08,0.12,0.21,0.18,0.39,0.18h0.56c0.06,0,0.11,0.02,0.14,0.05c0.04,0.04,0.05,0.08,0.05,0.14v0.5
	c0,0.05-0.02,0.1-0.05,0.14c-0.03,0.04-0.08,0.06-0.14,0.06h-0.66C38.27,12.9,37.9,12.78,37.66,12.52z"/>
<path class="st1" d="M40.97,12.82c-0.23-0.11-0.41-0.26-0.54-0.44c-0.13-0.19-0.2-0.39-0.2-0.62c0-0.36,0.15-0.66,0.44-0.88
	c0.29-0.22,0.7-0.38,1.21-0.46l1.1-0.16v-0.17c0-0.23-0.06-0.4-0.18-0.52c-0.12-0.12-0.3-0.18-0.56-0.18c-0.18,0-0.32,0.03-0.42,0.1
	c-0.11,0.06-0.19,0.13-0.26,0.2c-0.07,0.07-0.11,0.11-0.13,0.13c-0.02,0.06-0.06,0.1-0.12,0.1h-0.62c-0.05,0-0.09-0.02-0.12-0.05
	c-0.04-0.03-0.05-0.07-0.05-0.13c0-0.13,0.07-0.28,0.2-0.45c0.13-0.17,0.32-0.31,0.58-0.44c0.26-0.13,0.58-0.19,0.97-0.19
	c0.63,0,1.09,0.14,1.38,0.42c0.29,0.28,0.43,0.65,0.43,1.11v2.51c0,0.05-0.02,0.1-0.05,0.14c-0.04,0.04-0.08,0.06-0.14,0.06h-0.66
	c-0.05,0-0.1-0.02-0.14-0.06c-0.04-0.04-0.06-0.08-0.06-0.14V12.4c-0.12,0.17-0.28,0.31-0.5,0.42c-0.21,0.11-0.48,0.16-0.8,0.16
	C41.45,12.98,41.2,12.93,40.97,12.82z M42.71,11.93c0.19-0.19,0.28-0.47,0.28-0.83v-0.16l-0.8,0.13c-0.61,0.1-0.92,0.3-0.92,0.62
	c0,0.17,0.07,0.3,0.21,0.4c0.14,0.09,0.31,0.14,0.51,0.14C42.28,12.21,42.52,12.12,42.71,11.93z"/>
<path class="st1" d="M45.34,12.85c-0.04-0.04-0.06-0.08-0.06-0.14V8.94c0-0.06,0.02-0.11,0.06-0.14c0.04-0.04,0.08-0.06,0.14-0.06
	h0.66c0.06,0,0.11,0.02,0.14,0.06c0.04,0.04,0.06,0.08,0.06,0.14v0.33c0.27-0.35,0.65-0.53,1.15-0.53h0.34
	c0.06,0,0.1,0.02,0.14,0.05c0.03,0.04,0.05,0.08,0.05,0.14v0.58c0,0.05-0.02,0.1-0.05,0.14c-0.04,0.04-0.08,0.06-0.14,0.06h-0.63
	c-0.25,0-0.45,0.07-0.59,0.22c-0.14,0.14-0.22,0.34-0.22,0.59v2.19c0,0.05-0.02,0.1-0.06,0.14c-0.04,0.04-0.08,0.06-0.14,0.06h-0.71
	C45.43,12.9,45.38,12.88,45.34,12.85z"/>
<path class="st1" d="M49.63,12.52c-0.25-0.25-0.37-0.63-0.37-1.12V9.6h-0.63c-0.05,0-0.1-0.02-0.14-0.06
	c-0.04-0.04-0.06-0.08-0.06-0.14V8.93c0-0.05,0.02-0.1,0.06-0.14c0.04-0.04,0.08-0.06,0.14-0.06h0.63V7.41
	c0-0.06,0.02-0.1,0.06-0.14c0.04-0.04,0.08-0.05,0.14-0.05h0.66c0.06,0,0.11,0.02,0.14,0.05c0.03,0.04,0.05,0.08,0.05,0.14v1.33h1
	c0.05,0,0.1,0.02,0.14,0.06c0.04,0.04,0.06,0.08,0.06,0.14v0.47c0,0.05-0.02,0.1-0.06,0.14c-0.04,0.04-0.08,0.06-0.14,0.06h-1v1.72
	c0,0.23,0.04,0.4,0.12,0.52c0.08,0.12,0.21,0.18,0.39,0.18h0.56c0.06,0,0.11,0.02,0.14,0.05c0.04,0.04,0.05,0.08,0.05,0.14v0.5
	c0,0.05-0.02,0.1-0.05,0.14c-0.03,0.04-0.08,0.06-0.14,0.06h-0.66C50.24,12.9,49.88,12.78,49.63,12.52z"/>
<path class="st1" d="M52.87,12.47c-0.35-0.34-0.54-0.83-0.56-1.46l-0.01-0.2c0-0.67,0.17-1.19,0.52-1.58
	c0.35-0.38,0.83-0.58,1.45-0.58c0.63,0,1.12,0.19,1.47,0.58c0.34,0.38,0.52,0.9,0.52,1.54v0.17c0,0.05-0.02,0.1-0.06,0.14
	c-0.04,0.04-0.08,0.06-0.14,0.06h-2.66v0.06c0.01,0.3,0.09,0.55,0.24,0.74c0.15,0.19,0.36,0.29,0.63,0.29c0.3,0,0.55-0.12,0.74-0.37
	c0.05-0.06,0.08-0.09,0.11-0.11c0.03-0.01,0.07-0.02,0.14-0.02h0.7c0.05,0,0.09,0.01,0.12,0.04c0.04,0.03,0.05,0.06,0.05,0.11
	c0,0.13-0.08,0.28-0.23,0.45c-0.15,0.17-0.37,0.32-0.65,0.45c-0.28,0.13-0.61,0.19-0.98,0.19C53.69,12.98,53.22,12.81,52.87,12.47z
	 M55.16,10.45v-0.02c0-0.31-0.08-0.57-0.24-0.76c-0.16-0.19-0.37-0.28-0.64-0.28c-0.27,0-0.49,0.09-0.64,0.28
	c-0.15,0.19-0.23,0.44-0.23,0.76v0.02H55.16z"/>
<path class="st1" d="M57.62,12.47c-0.29-0.34-0.45-0.8-0.47-1.38l-0.01-0.26l0.01-0.26c0.02-0.57,0.18-1.02,0.47-1.37
	c0.29-0.35,0.71-0.52,1.24-0.52c0.51,0,0.92,0.18,1.22,0.53V7.41c0-0.06,0.02-0.1,0.06-0.14c0.04-0.04,0.08-0.05,0.14-0.05h0.7
	c0.06,0,0.11,0.02,0.14,0.05c0.03,0.04,0.05,0.08,0.05,0.14v5.3c0,0.05-0.02,0.1-0.05,0.14c-0.04,0.04-0.08,0.06-0.14,0.06h-0.65
	c-0.05,0-0.1-0.02-0.14-0.06c-0.04-0.04-0.06-0.08-0.06-0.14v-0.3c-0.29,0.38-0.72,0.57-1.27,0.57
	C58.32,12.98,57.9,12.81,57.62,12.47z M59.84,11.83c0.15-0.19,0.23-0.44,0.24-0.72c0-0.06,0.01-0.17,0.01-0.3
	c0-0.14,0-0.25-0.01-0.31c-0.01-0.27-0.09-0.49-0.25-0.68c-0.15-0.19-0.38-0.28-0.67-0.28c-0.57,0-0.88,0.35-0.91,1.06l-0.01,0.24
	l0.01,0.24c0.04,0.7,0.34,1.06,0.91,1.06C59.46,12.12,59.69,12.02,59.84,11.83z"/>
</svg>
